<svg width="100" height="100" xmlns="http://www.w3.org/2000/svg">
 <!-- Created with Method Draw - http://github.com/duopixel/Method-Draw/ -->
 <g>
  <title>background</title>
  <rect fill="#dedede" id="canvas_background" height="102" width="102" y="-1" x="-1"/>
 </g>
 <g>
  <title>Layer 1</title>
  <path stroke="#000" d="m47.296756,12.470229c-0.271447,0 -0.542898,0 -0.814346,0c-0.271447,0 -0.542898,0 -0.814346,0c-0.271447,0 -0.542898,0 -0.814346,0c-0.271447,0 -0.542898,0 -0.814346,0c-0.271447,0 -0.542898,0 -0.814346,0c-0.271447,0 -0.563559,-0.095716 -0.814346,0c-0.354664,0.135361 -0.542895,0.250114 -0.814346,0.250114c-0.271447,0 -0.312773,0.058684 -0.814346,0.250114c-0.354664,0.135361 -0.563559,0.154398 -0.814346,0.250114c-0.354664,0.135361 -0.542895,0.250115 -0.814346,0.250115c-0.271447,0 -0.542895,0 -0.814346,0c-0.271447,0 -0.459679,0.114753 -0.814342,0.250114c-0.250786,0.095716 -0.350955,0.073257 -0.542898,0.250114c-0.191943,0.176857 -0.550161,0.19265 -0.814346,0.250115c-0.590739,0.128494 -0.814346,0.250113 -1.085795,0.500228c-0.271447,0.250114 -0.45968,0.364868 -0.814346,0.500229c-0.501571,0.191429 -0.89385,0.073256 -1.085793,0.250114c-0.191943,0.176857 -0.188233,0.364867 -0.542897,0.500228c-0.250786,0.095715 -0.350955,0.073257 -0.542898,0.250115c-0.191942,0.176857 -0.563559,0.1544 -0.814344,0.250114c-0.354665,0.135361 -0.271449,0.500228 -0.542898,0.500228c-0.271447,0 -0.350953,0.073257 -0.542897,0.250115c-0.191943,0.176857 -0.079506,0.323371 -0.271449,0.500229c-0.191942,0.176856 -0.29211,0.154398 -0.542897,0.250113c-0.354664,0.135361 -0.350953,0.32337 -0.542897,0.500228c-0.191943,0.176858 -0.16757,0.269153 -0.271449,0.500229c-0.146907,0.326789 -0.395989,0.423552 -0.542897,0.750342c-0.103879,0.231074 -0.16757,0.269152 -0.271449,0.500228c-0.146906,0.326789 -0.395989,0.423552 -0.542897,0.750342c-0.103879,0.231074 -0.271449,0.500228 -0.271449,0.750342c0,0.250113 0.191943,0.573485 0,0.750342c-0.191942,0.176856 -0.271447,0.250113 -0.271447,0.500228c0,0.250113 0,0.500228 0,0.750342c0,0.250113 0,0.500228 0,0.750342c0,0.250113 0,0.500228 0,0.750342c0,0.250113 0,0.500228 0,0.750341c0,0.250115 0,0.500229 0,0.750342c0,0.250115 0,0.500229 0,0.750342c0,0.250115 0.271447,0.250115 0.271447,0.500228c0,0.250115 0.079506,0.323372 0.271449,0.500229c0.191942,0.176856 0,0.500228 0,0.750342c0,0.250115 0.271449,0.500228 0.271449,0.750341c0,0.250116 0.271447,0.250116 0.271447,0.500229c0,0.250113 0.124542,0.423553 0.271449,0.750342c0.103879,0.231073 0.124542,0.42355 0.271449,0.750342c0.103878,0.231076 -0.191945,0.573485 0,0.750342c0.191942,0.176858 0.271447,0.250113 0.271447,0.500226c0,0.250116 0.271449,0.250116 0.271449,0.500229c0,0.250113 0.271449,0.250113 0.271449,0.500229c0,0.250113 0.079506,0.323369 0.271447,0.500226c0.191945,0.176858 0.079507,0.573485 0.271449,0.750342c0.191942,0.176858 0.079506,0.323372 0.271447,0.500229c0.191943,0.176858 0.079507,0.323369 0.271449,0.500226c0.191943,0.176858 0.395989,0.17344 0.542897,0.500229c0.103879,0.231076 0.079504,0.323372 0.271449,0.500229c0.191943,0.176858 0.271449,0.250113 0.542897,0.500226c0.271449,0.250116 0.350955,0.323372 0.542897,0.500229c0.191943,0.176858 0.542897,0.250113 0.814346,0.500229c0.271447,0.250113 0.350956,0.323369 0.542898,0.500226c0.191942,0.176858 0.563559,0.154403 0.814344,0.250116c0.354664,0.13536 0.622404,0.323369 0.814346,0.500226c0.191945,0.176858 0.188234,0.36487 0.542898,0.500229c0.250785,0.095713 0.542897,0.250113 0.814344,0.250113c0.271451,0 0.542898,0.250113 0.814346,0.250113c0.271451,0 0.459682,0.114754 0.814346,0.250116c0.250783,0.095713 0.542898,0.250113 0.814346,0.250113c0.271447,0 0.563562,0.1544 0.814346,0.250113c0.354664,0.135362 0.557421,0.135188 1.085793,0.250116c0.590741,0.128493 0.814346,0.250113 1.085796,0.250113c0.542895,0 0.814346,0.250113 1.085793,0.250113c0.542895,0 0.731129,0.114754 1.085793,0.250116c0.501573,0.19143 0.731129,0.114754 1.085793,0.250113c0.250786,0.095716 0.855671,-0.19143 1.357244,0c0.354664,0.13536 0.542898,0.250113 0.814346,0.250113c0.542898,0 0.814346,0 1.085793,0c0.271447,0 0.542898,0 1.085793,0c0.271451,0 0.542898,0 0.814346,0c0.542898,0 1.085796,0 1.357244,0c0.542898,0 0.814346,0 1.357244,0c0.542895,0 0.814342,0 1.628688,0c0.542898,0 0.814346,0 1.085796,0c0.271447,0 0.542895,0 0.814346,0c0.271447,0 0.271447,-0.250113 0.542895,-0.250113c0.271451,0 0.350955,-0.073256 0.542898,-0.250113c0.191943,-0.176858 0.350955,-0.073258 0.542898,-0.250116c0.191943,-0.176858 0.622399,0.176858 0.814342,0c0.191943,-0.176858 0.292112,-0.1544 0.542898,-0.250113c0.354664,-0.13536 0.459682,-0.364867 0.814346,-0.500229c0.250783,-0.095713 0.350955,-0.073256 0.542898,-0.250113c0.191943,-0.176858 0.459679,-0.364867 0.814346,-0.500229c0.250786,-0.095713 0.622399,-0.073256 0.814342,-0.250113c0.191943,-0.176858 0.079507,-0.323369 0.271451,-0.500226c0.191943,-0.176858 0.350958,-0.073261 0.542895,-0.250116c0.191943,-0.176858 0.395996,-0.173437 0.542901,-0.500226c0.103881,-0.231076 0.188228,-0.36487 0.542895,-0.500229c0.250786,-0.095713 0.350958,-0.073258 0.542895,-0.250113c0.191943,-0.176858 0.079507,-0.323372 0.271451,-0.500229c0.191943,-0.176858 0.271451,-0.250113 0.271451,-0.500229c0,-0.250113 0.167564,-0.269151 0.271444,-0.500226c0.146906,-0.326792 0.31199,-0.368734 0.542901,-0.500229c0.516322,-0.294027 0.350952,-0.573485 0.542895,-0.750342c0.191943,-0.176858 0.167564,-0.519267 0.271444,-0.750342c0.146906,-0.326789 0.395996,-0.42355 0.542901,-0.750342c0.103881,-0.231076 0.271444,-0.750342 0.542895,-1.000456c0.271451,-0.250113 0.16757,-0.519267 0.271451,-0.750342c0.146906,-0.326786 0.271444,-0.500229 0.271444,-0.750342c0,-0.250113 0,-0.500229 0,-0.750342c0,-0.250113 -0.062366,-0.506919 0,-0.750342c0.139456,-0.544309 0.271451,-1.000456 0.271451,-1.250569c0,-0.500229 0,-1.000457 0,-1.500686c0,-0.250113 0.124731,-0.763722 0,-1.25057c-0.139456,-0.544312 -0.395989,-0.923782 -0.542895,-1.25057c-0.103875,-0.231074 -0.131994,-0.456144 -0.271451,-1.000456c-0.062366,-0.243424 0.103881,-0.519268 0,-0.750342c-0.146906,-0.326791 -0.209085,-0.757033 -0.271451,-1.000457c-0.13945,-0.544309 -0.187986,-0.796865 -0.542895,-1.25057c-0.224462,-0.286949 -0.439014,-0.519267 -0.542895,-0.750342c-0.146906,-0.326791 -0.350952,-0.573485 -0.542895,-0.750342c-0.191943,-0.176859 -0.271451,-0.250112 -0.542901,-0.500228c-0.271444,-0.250113 -0.188228,-0.614981 -0.542895,-0.750342c-0.250786,-0.095715 -0.271451,-0.250116 -0.542895,-0.500228c-0.271451,-0.250116 -0.593394,-0.423331 -1.085796,-0.750342c-0.311425,-0.206821 -0.593388,-0.423328 -1.085796,-0.750342c-0.311425,-0.20682 -0.774368,-0.543521 -1.085793,-0.750342c-0.492405,-0.327011 -0.774368,-0.543521 -1.085793,-0.750342c-0.492405,-0.327013 -0.710468,-0.269153 -0.814346,-0.500229c-0.146906,-0.326789 -0.563562,-0.404513 -0.814346,-0.500228c-0.354664,-0.135361 -0.584221,-0.308799 -1.085793,-0.500229c-0.354664,-0.135361 -0.821609,-0.442764 -1.085793,-0.500229c-0.590741,-0.128494 -1.037953,-0.371734 -1.628691,-0.500228c-0.528375,-0.11493 -0.814346,0 -1.357244,0c-0.542895,0 -0.814346,-0.250114 -1.085793,-0.250114c-0.271447,0 -0.542898,0 -0.814346,0c-0.271447,0 -0.542898,0 -0.814346,0c-0.271447,0 -0.542898,0 -0.814346,0l-0.271447,0" id="svg_2" fill-opacity="null" stroke-opacity="null" stroke-width="2" fill="none"/>
  <path d="m48.333332,74.151039c0,-0.333336 0,-0.666672 0,-1c0,-0.333336 0,-0.666672 0,-1c0,-0.333336 0,-0.666672 0,-1c0,-0.333336 0,-0.666672 0,-1c0,-0.333336 0,-0.666672 0,-1c0,-0.333336 0,-0.666664 0,-1c0,-0.666664 0,-1 0,-1.333336c0,-0.333328 0,-0.666664 0,-1c0,-0.333328 0,-0.666664 0,-1c0,-0.333328 0,-0.666664 0,-0.999996c0,-0.333336 0,-0.666668 0,-1c0,-0.333336 0,-0.666668 0,-1c0,-0.333336 0,-0.666668 0,-1c0,-0.333336 0,-0.666668 0,-1c0,-0.333332 0,-0.666668 0,-1c0,-0.333332 0,-0.666668 0,-1c0,-0.333332 0,-0.666668 0,-1c0,-0.333332 0,-0.666668 0,-1c0,-0.333332 0,-0.666668 0,-1c0,-0.333332 0,-0.666668 0,-1c0,-0.333332 0,-0.666668 0,-1c0,-0.333332 0,-0.666664 0,-1c0,-0.333332 0,-0.666664 0,-1c0,-0.333332 0,-0.666664 0,-1c0,-0.333332 0,-0.666664 0,-1c0,-0.333332 0,-0.666664 0,-1c0,-0.333332 0,-0.666664 0,-0.999996c0,-0.333336 0,-0.666668 0,-1c0,-0.333336 0,-0.666668 0,-1l-0.333332,0l0,-0.333336" id="svg_3" fill-opacity="null" stroke-opacity="null" stroke-width="2" stroke="#000" fill="none"/>
  <path d="m27.333338,91.151032c0,-0.333328 0.333334,-0.333328 0.333334,-0.666664c0,-0.333336 0.430964,-0.430962 0.666666,-0.666664c0.235704,-0.235703 0.358706,-0.872437 0.666666,-1c0.435522,-0.180397 0.231148,-0.819603 0.666666,-1c0.307961,-0.127563 0.486269,-0.231148 0.666668,-0.666672c0.12756,-0.307953 0.486267,-0.564476 0.666666,-1c0.12756,-0.307953 0.430965,-0.430962 0.666668,-0.666664c0.235703,-0.235703 0.486267,-0.564476 0.666664,-1c0.12756,-0.307961 0.097637,-0.430969 0.333336,-0.666664c0.235703,-0.235703 0.430962,-0.097633 0.666664,-0.333336c0.235703,-0.235703 0.333336,-0.333336 0.666668,-0.666664c0.333336,-0.333336 0.539101,-0.358711 0.666664,-0.666672c0.180401,-0.435516 0.430965,-0.430962 0.666668,-0.666664c0.235703,-0.235703 0.358704,-0.205772 0.666668,-0.333336c0.435516,-0.180397 0.430962,-0.430962 0.666664,-0.666664c0.235703,-0.235703 0.430965,-0.097626 0.666668,-0.333328c0.235703,-0.235703 0.430965,-0.097633 0.666668,-0.333336c0.235703,-0.235703 0.097633,-0.430969 0.333332,-0.666664c0.235703,-0.235703 0.430965,-0.097633 0.666668,-0.333336c0.235703,-0.235703 0.430962,-0.097633 0.666664,-0.333336c0.235699,-0.235695 0.231144,-0.486267 0.666668,-0.666664c0.307961,-0.127563 0.333332,-0.333336 0.666664,-0.333336c0.333336,0 0.430965,-0.097626 0.666668,-0.333328c0.235703,-0.235703 0.430965,-0.097633 0.666668,-0.333336c0.235703,-0.235703 0.231148,-0.486267 0.666664,-0.666664c0.307964,-0.127563 0.333336,-0.333336 0.666668,-0.333336c0.333332,0 0.333332,-0.333336 0.666668,-0.333336c0.333332,0 0.333332,-0.333328 0.666664,-0.333328c0.333336,0 0.333336,-0.333336 0.666668,-0.333336c0.333332,0 0.333332,-0.333336 0.666664,-0.333336c0.333336,0 0.333336,-0.333328 0.666668,-0.333328c0.333332,0 0.666668,-0.333336 1,-0.333336l0,-0.333336l0.333332,0l0.333336,0" id="svg_4" fill-opacity="null" stroke-opacity="null" stroke-width="2" stroke="#000" fill="none"/>
  <path d="m65.33333,92.8177c0,-0.333336 -0.09763,-0.430962 -0.333332,-0.666664c-0.471409,-0.471405 -0.256752,-1.008919 -0.333336,-1.333336c-0.171246,-0.72541 -0.23085,-1.39534 -0.666664,-2c-0.275639,-0.382423 -0.724365,-0.950912 -1,-1.333336c-0.435818,-0.60466 -0.666668,-1.333328 -1,-1.666664c-0.333332,-0.333336 -0.819603,-0.564476 -1,-1c-0.12756,-0.307961 -0.09763,-0.764297 -0.333332,-1c-0.235703,-0.235703 -0.205776,-0.358711 -0.333336,-0.666664c-0.180397,-0.435524 -0.430962,-0.430962 -0.666664,-0.666664c-0.235703,-0.235703 -0.333336,-0.333336 -0.333336,-0.666672c0,-0.333328 -0.09763,-0.430962 -0.333332,-0.666664c-0.235703,-0.235703 -0.097633,-0.430969 -0.333332,-0.666664c-0.235703,-0.235703 -0.097633,-0.430969 -0.333336,-0.666672c-0.235703,-0.235703 -0.430962,-0.097626 -0.666664,-0.333328c-0.235703,-0.235703 -0.486271,-0.564484 -0.666668,-1c-0.127563,-0.307961 -0.09763,-0.430969 -0.333332,-0.666672c-0.235703,-0.235703 -0.430965,-0.097626 -0.666668,-0.333328c-0.235703,-0.235703 -0.09763,-0.430969 -0.333332,-0.666672c-0.235703,-0.235703 -0.333332,-0.333328 -0.666668,-0.333328c-0.333332,0 -0.430962,-0.097633 -0.666664,-0.333336c-0.235703,-0.235703 -0.430965,-0.097633 -0.666668,-0.333336c-0.235699,-0.235695 -0.09763,-0.430962 -0.333332,-0.666664c-0.235703,-0.235703 -0.764297,0.235703 -1,0c-0.235703,-0.235703 -0.333336,-0.333336 -0.666668,-0.333336c-0.333332,0 -0.333332,-0.333328 -0.666668,-0.333328c-0.333332,0 -0.764297,0.235703 -1,0c-0.235703,-0.235703 -0.430962,-0.097633 -0.666664,-0.333336c-0.235703,-0.235703 -0.333332,-0.333336 -0.666668,-0.333336l0,-0.333328l-0.333332,0" id="svg_5" fill-opacity="null" stroke-opacity="null" stroke-width="2" stroke="#000" fill="none"/>
  <path d="m48.333332,51.484375c0,0 0.025375,-0.127563 0.333336,0c0.43552,0.180397 0.564476,0.819603 1,1c0.307961,0.12756 0.728668,0.564182 1.333332,1c0.38242,0.275635 0.564182,0.728664 1,1.333332c0.55127,0.764847 1.139618,0.80629 1.666664,1.333332c0.52705,0.527046 1,1 1.666668,1.666668c0.666668,0.666668 1,1 1.333332,1.333332c0.333336,0.333336 0.819603,0.56448 1,1c0.12756,0.307961 0.486271,0.231144 0.666668,0.666668c0.12756,0.307961 0.486267,0.231144 0.666664,0.666664c0.127563,0.307961 0.358707,0.539108 0.666668,0.666668c0.43552,0.180397 0.486267,0.56448 0.666668,1c0.12756,0.307957 0.486267,0.231144 0.666664,0.666668c0.12756,0.307957 0.097633,0.430965 0.333336,0.666668c0.235703,0.235703 0.430962,0.430962 0.666664,0.666664c0.235703,0.235703 0.333336,0.333336 0.666668,0.666664c0.333336,0.333336 0.539101,0.358711 0.666664,0.666672c0.180397,0.435516 0.430969,0.764297 0.666672,1c0.235695,0.235695 0.539101,0.358704 0.666664,0.666664c0.180397,0.435524 0.666664,0.666664 1,1c0.333336,0.333328 0.333336,0.666664 0.666664,0.666664l0,0.333336" id="svg_7" fill-opacity="null" stroke-opacity="null" stroke-width="2" stroke="#000" fill="none"/>
  <path d="m30.333338,68.817703c0,-0.333328 0.097628,-0.430962 0.333332,-0.666664c0.235703,-0.235703 0.430969,-0.430969 0.666668,-0.666664c0.235701,-0.235703 0.666662,-0.333336 0.999998,-0.666672c0.333332,-0.333328 0.666664,-0.666664 1,-1c0.333332,-0.333328 0.564186,-0.728668 1,-1.333328c0.275635,-0.382423 0.666668,-0.666668 1,-1.000004c0.333332,-0.333332 0.999996,-0.666664 1.333332,-1c0.333336,-0.333336 0.666664,-0.666664 1,-1c0.333336,-0.333336 0.56448,-0.819599 1,-1c0.307961,-0.127563 0.430965,-0.430962 0.666668,-0.666664c0.235703,-0.235703 0.819603,-0.231144 1,-0.666668c0.12756,-0.307961 0.09763,-0.430962 0.333332,-0.666664c0.235703,-0.235703 0.430965,-0.097633 0.666668,-0.333336c0.235703,-0.235703 0.205772,-0.358704 0.333332,-0.666664c0.180397,-0.435524 0.430965,-0.430965 0.666668,-0.666668c0.235703,-0.235703 0.09763,-0.430965 0.333332,-0.666668c0.235703,-0.235703 0.358707,-0.205769 0.666668,-0.333332c0.43552,-0.180397 0.430962,-0.430965 0.666664,-0.666668c0.235703,-0.235703 0.231148,-0.486267 0.666668,-0.666664c0.307961,-0.12756 0.430965,-0.097633 0.666668,-0.333336c0.235703,-0.235703 0.09763,-0.430962 0.333332,-0.666664c0.235703,-0.235703 0.430965,-0.097633 0.666668,-0.333336c0.235703,-0.235703 0.09763,-0.430962 0.333332,-0.666664c0.235703,-0.235703 0.333332,-0.333332 0.666664,-0.333332c0.333336,0 0.333336,-0.333336 0.333336,-0.666668l0.333332,0l0,-0.333332" id="svg_8" fill-opacity="null" stroke-opacity="null" stroke-width="2" stroke="#000" fill="none"/>
  <polyline stroke-linecap="round" id="svg_9" points="42.00000162760381,21.48438080151756 42.00000162760381,21.48438080151756 " fill-opacity="null" stroke-opacity="null" stroke-width="2" stroke="#000" fill="none"/>
  <polyline stroke-linecap="round" id="svg_10" points="53.66666592068157,20.817714270484544 53.66666592068157,20.817714270484544 " fill-opacity="null" stroke-opacity="null" stroke-width="2" stroke="#000" fill="none"/>
  <path d="m38.666668,31.151045c0,0 0.097633,0.09763 0.333336,0.333334c0.235703,0.235703 0.09763,0.764297 0.333332,1c0.235703,0.235703 0.430965,0.09763 0.666668,0.333332c0.235703,0.235703 0.09763,0.430965 0.333332,0.666668c0.235703,0.235703 0.430962,0.09763 0.666664,0.333332c0.235703,0.235703 0.097633,0.430965 0.333336,0.666668c0.235703,0.235703 0.430962,0.09763 0.666664,0.333332c0.235703,0.235703 0.430965,0.09763 0.666668,0.333332c0.235703,0.235703 0.430965,0.097633 0.666668,0.333336c0.235703,0.235703 0.333332,0.333332 0.666664,0.333332c0.333336,0 0.666668,0.333332 1,0.333332c0.333336,0 0.666668,0 1,0c0.333336,0 0.666668,0 1,0c0.333332,0 0.666668,0 1,0c0.333332,0 0.666668,0 1,0c0.333332,0 0.666668,0 1,0c0.333332,0 0.764297,0.235703 1,0c0.235703,-0.235703 0.333332,-0.333332 0.666668,-0.333332c0.333332,0 0.358704,-0.205772 0.666664,-0.333332c0.435524,-0.180401 0.430965,-0.430965 0.666668,-0.666668c0.235703,-0.235703 0.764297,-0.09763 1,-0.333332c0.235703,-0.235703 0.09763,-0.430965 0.333332,-0.666668c0.235703,-0.235703 0.430965,-0.09763 0.666668,-0.333332c0.235703,-0.235703 0.430962,-0.09763 0.666664,-0.333332c0.235703,-0.235703 0.097633,-0.430965 0.333336,-0.666668c0.235703,-0.235703 0.430962,-0.09763 0.666664,-0.333332c0.235703,-0.235703 0.097633,-0.430964 0.333336,-0.666668c0.235703,-0.235703 0.333332,-0.333334 0.333332,-0.666666l0,-0.333334l0.333332,0" id="svg_11" fill-opacity="null" stroke-opacity="null" stroke-width="2" stroke="#000" fill="none"/>
  <path d="m50.333332,12.15105c0,0 -0.333332,0 -0.666664,0c-0.333336,0 -0.666668,0 -1,0c-0.333336,0 -0.666668,0 -1,0c-0.333336,0 -0.666668,0 -1,0l-0.333332,0" id="svg_14" fill-opacity="null" stroke-opacity="null" stroke-width="2" stroke="#000" fill="none"/>
 </g>
</svg>